<svg xmlns="http://www.w3.org/2000/svg" xmlns:xlink="http://www.w3.org/1999/xlink" fill="none" version="1.1" width="64" height="64" viewBox="0 0 64 64"><defs><clipPath id="master_svg0_85_502"><rect x="0" y="0" width="64" height="64" rx="0"/></clipPath></defs><g clip-path="url(#master_svg0_85_502)"><g><g><path d="M11,25.5L56,25.5L56,25.499299999999998Q56.171913,25.499299999999998,56.342995,25.4824498Q56.514076,25.4655998,56.682678,25.4320617Q56.851288,25.3985238,57.015793,25.3486211Q57.180298,25.2987185,57.339119,25.2329314Q57.497944,25.1671445,57.649555,25.0861068Q57.801163,25.0050693,57.944099,24.9095612Q58.08704,24.8140535,58.219925,24.7049952Q58.352814,24.595937,58.474373,24.4743786Q58.595932,24.3528204,58.704987,24.2199323Q58.814049,24.0870445,58.909554,23.9441067Q59.005066,23.8011692,59.086102,23.6495585Q59.167137,23.4979477,59.232925,23.339123999999998Q59.298714,23.1803004,59.348618,23.0157932Q59.398521,22.85128593,59.432056,22.68267953Q59.465599,22.51407319,59.482449,22.34299138Q59.499302,22.17190959,59.499298,22Q59.499302,21.82809041,59.482452,21.65700862Q59.465599,21.48592681,59.432056,21.31732047Q59.398521,21.14871407,59.348618,20.9842069Q59.298714,20.8196996,59.232925,20.660876000000002Q59.167141,20.5020523,59.086105,20.3504415Q59.005066,20.1988308,58.909557,20.0558932Q58.814053,19.9129555,58.704994,19.7800677Q58.595936,19.6471796,58.474377,19.5256214Q58.352818,19.404063,58.219929,19.2950048Q58.087044,19.1859465,57.944103,19.0904388Q57.801167,18.9949307,57.649555,18.9138932Q57.497944,18.8328555,57.339119,18.7670686Q57.180298,18.7012815,57.015793,18.6513789Q56.851288,18.6014762,56.682678,18.5679383Q56.514076,18.5344002,56.342995,18.51755Q56.171913,18.500700000000002,56,18.500700000000002L56,18.5L11,18.5L11,18.500700000000002Q10.82809041,18.500700000000002,10.65700862,18.5175502Q10.48592681,18.5344002,10.31732047,18.5679383Q10.14871407,18.6014762,9.9842069,18.6513789Q9.8196996,18.7012815,9.660876,18.7670686Q9.502052299999999,18.8328555,9.3504415,18.9138932Q9.1988308,18.9949307,9.0558932,19.0904388Q8.912955499999999,19.1859465,8.7800677,19.2950048Q8.6471796,19.404063,8.5256214,19.5256214Q8.404063,19.6471796,8.295004800000001,19.7800677Q8.1859465,19.9129555,8.0904388,20.0558933Q7.994930699999999,20.1988308,7.9138932,20.3504415Q7.8328555,20.5020523,7.7670686,20.660876000000002Q7.7012815,20.8196996,7.6513789,20.9842068Q7.6014762000000005,21.14871407,7.5679383,21.31732047Q7.5344002,21.48592681,7.51755,21.65700862Q7.5007,21.82809041,7.5007,22Q7.5007,22.17190959,7.5175502000000005,22.34299138Q7.5344002,22.51407319,7.5679383,22.68267953Q7.6014762000000005,22.85128593,7.6513789,23.0157931Q7.7012815,23.1803004,7.7670686,23.339123999999998Q7.8328555,23.4979477,7.9138932,23.6495585Q7.994930699999999,23.8011692,8.0904388,23.9441068Q8.1859465,24.0870445,8.295004800000001,24.2199323Q8.404063,24.3528204,8.5256214,24.4743786Q8.6471796,24.595937,8.7800677,24.7049952Q8.912955499999999,24.8140535,9.0558933,24.9095612Q9.1988308,25.0050693,9.3504415,25.0861068Q9.502052299999999,25.1671445,9.660876,25.2329314Q9.8196996,25.2987185,9.984206799999999,25.3486211Q10.14871407,25.3985238,10.31732047,25.4320617Q10.48592681,25.4655998,10.65700862,25.48245Q10.82809041,25.499299999999998,11,25.499299999999998L11,25.5Z" fill-rule="evenodd" fill="#333333" fill-opacity="1"/></g><g><path d="M8,45.5L53,45.5L53,45.4993Q53.171913,45.4993,53.342995,45.4824498Q53.514076,45.4655998,53.682678,45.4320617Q53.851288,45.3985238,54.015793,45.3486211Q54.180298,45.2987185,54.339119,45.2329314Q54.497944,45.1671445,54.649555,45.0861068Q54.801163,45.0050693,54.944099,44.9095612Q55.08704,44.8140535,55.219925,44.7049952Q55.352814,44.595937,55.474373,44.4743786Q55.595932,44.3528204,55.704987,44.219932299999996Q55.814049,44.0870445,55.909554,43.9441067Q56.005066,43.8011692,56.086102,43.6495585Q56.167137,43.4979477,56.232925,43.339124Q56.298714,43.1803004,56.348618,43.0157932Q56.398521,42.85128593,56.432056,42.68267953Q56.465599,42.51407319,56.482449,42.34299138Q56.499302,42.17190959,56.499298,42Q56.499302,41.82809041,56.482452,41.65700862Q56.465599,41.48592681,56.432056,41.31732047Q56.398521,41.14871407,56.348618,40.9842069Q56.298714,40.8196996,56.232925,40.660876Q56.167141,40.5020523,56.086105,40.3504415Q56.005066,40.1988308,55.909557,40.0558932Q55.814053,39.9129555,55.704994,39.780067700000004Q55.595936,39.6471796,55.474377,39.5256214Q55.352818,39.404063,55.219929,39.2950048Q55.087044,39.1859465,54.944103,39.0904388Q54.801167,38.9949307,54.649555,38.9138932Q54.497944,38.8328555,54.339119,38.7670686Q54.180298,38.7012815,54.015793,38.6513789Q53.851288,38.6014762,53.682678,38.5679383Q53.514076,38.5344002,53.342995,38.51755Q53.171913,38.5007,53,38.5007L53,38.5L8,38.5L8,38.5007Q7.82809041,38.5007,7.65700862,38.5175502Q7.4859268100000005,38.5344002,7.31732047,38.5679383Q7.1487140700000005,38.6014762,6.9842069,38.6513789Q6.8196996,38.7012815,6.660876,38.7670686Q6.5020523,38.8328555,6.3504415000000005,38.9138932Q6.1988308,38.9949307,6.0558932,39.0904388Q5.9129555,39.1859465,5.7800677,39.2950048Q5.647179599999999,39.404063,5.5256214,39.5256214Q5.404063,39.6471796,5.2950048,39.780067700000004Q5.1859465,39.9129555,5.090438799999999,40.0558933Q4.994930699999999,40.1988308,4.9138932,40.3504415Q4.8328555,40.5020523,4.7670686,40.660876Q4.7012815,40.8196996,4.6513789,40.9842068Q4.6014762000000005,41.14871407,4.5679383,41.31732047Q4.5344002,41.48592681,4.51755,41.65700862Q4.5007,41.82809041,4.5007,42Q4.5007,42.17190959,4.5175502000000005,42.34299138Q4.5344002,42.51407319,4.5679383,42.68267953Q4.6014762000000005,42.85128593,4.6513789,43.0157931Q4.7012815,43.1803004,4.7670686,43.339124Q4.8328555,43.4979477,4.9138932,43.6495585Q4.994930699999999,43.8011692,5.090438799999999,43.9441068Q5.1859465,44.0870445,5.2950048,44.219932299999996Q5.404063,44.3528204,5.5256214,44.4743786Q5.647179599999999,44.595937,5.7800677,44.7049952Q5.9129555,44.8140535,6.0558933,44.9095612Q6.1988308,45.0050693,6.3504415000000005,45.0861068Q6.5020523,45.1671445,6.660876,45.2329314Q6.8196996,45.2987185,6.9842068,45.3486211Q7.1487140700000005,45.3985238,7.31732047,45.4320617Q7.4859268100000005,45.4655998,7.65700862,45.48245Q7.82809041,45.4993,8,45.4993L8,45.5Z" fill-rule="evenodd" fill="#333333" fill-opacity="1"/></g><g><path d="M49.438628,6.64879769Q49.4993,6.3272357,49.4993,6Q49.4993,5.82809041,49.48245,5.65700862Q49.4656,5.4859268100000005,49.432061,5.31732047Q49.398523,5.1487140700000005,49.348621,4.9842069Q49.298716999999996,4.8196996,49.232929999999996,4.660876Q49.167144,4.5020523,49.086107,4.3504415000000005Q49.005069,4.1988308,48.90956,4.0558932Q48.814053,3.9129555,48.704995,3.7800677Q48.595938000000004,3.6471796,48.474379,3.5256214Q48.352821,3.404063,48.219934,3.2950048Q48.087045,3.1859465,47.944106,3.0904388Q47.801169,2.9949307,47.649558,2.9138932Q47.497948,2.8328555,47.339123,2.7670686Q47.1803,2.7012815,47.015792,2.6513789Q46.851285000000004,2.6014762,46.682677999999996,2.5679383Q46.514072,2.5344002,46.342992,2.51755Q46.17191,2.5007,46,2.5007Q45.848527000000004,2.5007,45.6976204,2.5137892Q45.5467138,2.5268784,45.3975029,2.5529583Q45.248292,2.5790386,45.1018925,2.6179144Q44.9554939,2.6567907,44.8130016,2.7081716Q44.6705093,2.759553,44.5329895,2.823055Q44.3954697,2.8865571,44.2639513,2.9617047Q44.1324329,3.0368524,44.0079012,3.1230838Q43.8833694,3.2093151,43.7667551,3.3059847Q43.6501398,3.4026546,43.5423145,3.5090394Q43.4344888,3.6154246,43.3362594,3.7307291Q43.2380304,3.8460336,43.1501322,3.9693947Q43.0622339,4.0927558,42.9853249,4.223251Q42.9084153,4.3537462,42.84307,4.4903992Q42.7777243,4.6270523,42.724431,4.7688407999999995Q42.6711388,4.9106293,42.6302977,5.05649233Q42.5894566,5.2023555,42.5613723,5.35120231L42.5606842,5.35107255L32.5606842,58.351074L32.5613718,58.351204Q32.5007,58.672764,32.5007,59Q32.5007,59.171913,32.5175502,59.342991Q32.5344002,59.514076,32.5679383,59.682678Q32.6014762,59.851288,32.6513789,60.015793Q32.7012815,60.180298,32.7670686,60.339119Q32.8328555,60.497948,32.9138932,60.649555Q32.9949307,60.801163,33.0904388,60.944099Q33.1859465,61.08704,33.2950048,61.219929Q33.404063,61.352818,33.5256214,61.474373Q33.6471796,61.595936,33.780067700000004,61.704994Q33.9129555,61.814049,34.0558933,61.909554Q34.1988308,62.005066,34.3504415,62.086105Q34.5020523,62.167141,34.660876,62.232925Q34.8196996,62.298714,34.9842068,62.348618Q35.14871407,62.398521,35.31732047,62.43206Q35.48592681,62.465599,35.65700862,62.482452Q35.82809041,62.499298,36,62.499298Q36.15147297,62.499298,36.30237937,62.48621Q36.45328575,62.473122,36.60249668,62.447041Q36.75170755,62.420959,36.89810675,62.382088Q37.044506,62.343208,37.1869982,62.291828Q37.3294904,62.240448,37.4670098,62.176945Q37.6045291,62.113441,37.7360468,62.038292Q37.8675644,61.963146,37.9920965,61.876915Q38.1166286,61.790688,38.2332437,61.694016Q38.3498588,61.597343,38.457684,61.490959Q38.5655093,61.384575,38.6637385,61.269272Q38.7619677,61.153969,38.8498659,61.030609Q38.937764200000004,60.907242,39.0146737,60.776749Q39.091583299999996,60.646255,39.1569288,60.509598Q39.2222743,60.372948,39.2755673,60.231155Q39.32886,60.089371,39.3697014,59.943508Q39.410543,59.797646,39.4386275,59.6488L39.4393158,59.64893L49.439316,6.64892745L49.438628,6.64879769Z" fill-rule="evenodd" fill="#333333" fill-opacity="1"/></g><g><path d="M31.438628,6.64879769Q31.499299999999998,6.3272357,31.499299999999998,6Q31.499299999999998,5.82809041,31.48245,5.65700862Q31.465600000000002,5.4859268100000005,31.432060999999997,5.31732047Q31.398523,5.1487140700000005,31.348621,4.9842069Q31.298717,4.8196996,31.23293,4.660876Q31.167144,4.5020523,31.086107,4.3504415000000005Q31.005069,4.1988308,30.90956,4.0558932Q30.814053,3.9129555,30.704995,3.7800677Q30.595938,3.6471796,30.474379,3.5256214Q30.352821,3.404063,30.219934000000002,3.2950048Q30.087045,3.1859465,29.944105999999998,3.0904388Q29.801169,2.9949307,29.649558,2.9138932Q29.497948,2.8328555,29.339123,2.7670686Q29.180300000000003,2.7012815,29.015791999999998,2.6513789Q28.851285,2.6014762,28.682678,2.5679383Q28.514072,2.5344002,28.342992000000002,2.51755Q28.17191,2.5007,28,2.5007Q27.848527,2.5007,27.697620399999998,2.5137892Q27.5467138,2.5268784,27.3975029,2.5529583Q27.248292,2.5790386,27.101892499999998,2.6179144Q26.9554939,2.6567907,26.8130016,2.7081716Q26.6705093,2.759553,26.5329895,2.823055Q26.3954697,2.8865571,26.263951300000002,2.9617047Q26.132432899999998,3.0368524,26.0079012,3.1230838Q25.8833694,3.2093151,25.7667551,3.3059847Q25.650139799999998,3.4026546,25.5423145,3.5090394Q25.4344888,3.6154246,25.3362594,3.7307291Q25.2380304,3.8460336,25.1501322,3.9693947Q25.0622339,4.0927558,24.985324900000002,4.223251Q24.9084153,4.3537462,24.84307,4.4903992Q24.7777243,4.6270523,24.724431,4.7688407999999995Q24.6711388,4.9106293,24.6302977,5.05649233Q24.5894566,5.2023555,24.561372300000002,5.35120231L24.5606842,5.35107255L14.5606842,58.351074L14.5613718,58.351204Q14.5007,58.672764,14.5007,59Q14.5007,59.171913,14.5175502,59.342991Q14.5344002,59.514076,14.5679383,59.682678Q14.6014762,59.851288,14.651378900000001,60.015793Q14.7012815,60.180298,14.7670686,60.339119Q14.8328555,60.497948,14.9138932,60.649555Q14.9949307,60.801163,15.0904388,60.944099Q15.1859465,61.08704,15.295004800000001,61.219929Q15.404063,61.352818,15.5256214,61.474373Q15.6471796,61.595936,15.7800677,61.704994Q15.912955499999999,61.814049,16.0558933,61.909554Q16.1988308,62.005066,16.3504415,62.086105Q16.5020523,62.167141,16.660876000000002,62.232925Q16.8196996,62.298714,16.9842068,62.348618Q17.14871407,62.398521,17.31732047,62.43206Q17.48592681,62.465599,17.65700862,62.482452Q17.82809041,62.499298,18,62.499298Q18.15147297,62.499298,18.30237937,62.48621Q18.45328575,62.473122,18.60249668,62.447041Q18.75170755,62.420959,18.89810675,62.382088Q19.044506,62.343208,19.1869982,62.291828Q19.3294904,62.240448,19.4670098,62.176945Q19.6045291,62.113441,19.7360468,62.038292Q19.8675644,61.963146,19.9920965,61.876915Q20.1166286,61.790688,20.2332437,61.694016Q20.3498588,61.597343,20.457684,61.490959Q20.5655093,61.384575,20.6637385,61.269272Q20.7619677,61.153969,20.8498659,61.030609Q20.9377642,60.907242,21.0146737,60.776749Q21.0915833,60.646255,21.1569288,60.509598Q21.2222743,60.372948,21.2755673,60.231155Q21.32886,60.089371,21.3697014,59.943508Q21.410543,59.797646,21.4386275,59.6488L21.4393158,59.64893L31.439315999999998,6.64892745L31.438628,6.64879769Z" fill-rule="evenodd" fill="#333333" fill-opacity="1"/></g></g></g></svg>