<svg xmlns:xlink="http://www.w3.org/1999/xlink" width="256" height="256" id="图层_1" viewBox="0 0 256 256" data-name="图层 1" xmlns="http://www.w3.org/2000/svg">
    <defs>
        <style>.cls-1{fill:none;}.cls-2{fill:#43d3e8;}.cls-3{fill:#242d3c;}.cls-4{clip-path:url(#clip-path);}</style>
        <clipPath id="clip-path">
            <polygon points="193.5 73.38 193.5 394.01 511.66 606.11 829.83 394.01 829.83 73.38 193.5 73.38" class="cls-1"/>
        </clipPath>
    </defs>
    <title>全球购2</title>
    <g transform="matrix(0.27826087,0,0,0.27826087,-14.374957,-14.999652)">
        <polygon points="663.58 707.43 511.66 606.11 359.71 707.43 234.57 623.99 234.57 744.77 511.66 929.5 788.76 744.77 788.76 623.97 663.58 707.43" class="cls-2"/>
        <polygon points="511.66 950.13 217.4 753.95 217.4 623.97 251.73 623.97 251.73 735.58 511.66 908.87 771.6 735.58 771.6 623.97 805.92 623.97 805.92 753.95 511.66 950.13" class="cls-3"/>
        <rect width="34.33" height="323.38" x="494.49" y="606.11" class="cls-3"/>
        <path d="M663.58,728.06,480.72,606.11l308-205.31L971.64,522.65Zm-121-121.94,121,80.69L909.75,522.66,788.76,442Z" class="cls-3"/>
        <path d="M359.71,728.06l-308-205.41L234.55,400.8,542.6,606.11ZM113.55,522.66,359.71,686.81l121-80.7L234.55,442Z" class="cls-3"/>
        <polygon points="798.27 435.69 779.24 407.14 909.76 320.11 820.31 260.5 839.34 231.94 971.66 320.1 798.27 435.69" class="cls-3"/>
        <polygon points="225.02 435.69 51.66 320.1 183.97 231.94 203 260.5 113.55 320.11 244.07 407.14 225.02 435.69" class="cls-3"/>
        <g class="cls-4">
            <path d="M511.66,648.31c-157.33,0-285.32-128-285.32-285.32s128-285.31,285.32-285.31S797,205.67,797,363,669,648.31,511.66,648.31Zm0-536.31c-138.4,0-251,112.6-251,251s112.6,251,251,251,251-112.6,251-251S650,112,511.66,112Z" class="cls-3"/>
            <path d="M511.66,648.31C426.85,648.31,360.41,523,360.41,363S426.85,77.68,511.66,77.68V112c-63.37,0-116.92,114.94-116.92,251s53.55,251,116.92,251Z" class="cls-3"/>
            <path d="M511.66,648.31V614C575,614,628.57,499.05,628.57,363S575,112,511.66,112V77.68C596.45,77.68,662.9,203,662.9,363S596.45,648.31,511.66,648.31Z" class="cls-3"/>
            <rect width="34.33" height="536.31" x="494.49" y="94.84" class="cls-3"/>
            <rect width="536.31" height="34.33" x="243.5" y="345.83" class="cls-3"/>
            <path d="M511.66,246.08A686.6,686.6,0,0,1,297,211.84l10.71-32.61a652.49,652.49,0,0,0,204,32.52,651.92,651.92,0,0,0,204-32.52l10.72,32.61A686.18,686.18,0,0,1,511.66,246.08Z" class="cls-3"/>
            <path d="M307.71,546.76,297,514.15a690.1,690.1,0,0,1,429.35,0l-10.71,32.61a655.89,655.89,0,0,0-407.93,0Z" class="cls-3"/>
        </g>
    </g>
</svg>
