<?xml version="1.0" encoding="UTF-8" standalone="yes"?><svg fill="none" xmlns="http://www.w3.org/2000/svg" xmlns:xlink="http://www.w3.org/1999/xlink" version="1.2" baseProfile="tiny" x="0" y="0" width="256" height="256" viewBox="0 0 256 256"><defs/><g id="单线填充_10757707280.鼠标点击" clip-path="url(#clip0_1_74038)"><g id="Group"><g id="Group_2"><path id="Vector" fill="#ffffff" fill-opacity="0.67" d="M 235.233 181.817 L 155.325 155.227 L 182.051 235.141 L 195.211 209.932 C 195.488 209.444 195.829 208.89 196.175 208.55 C 198.53 206.26 202.204 206.26 204.486 208.48 L 228.312 232.298 L 232.395 228.213 L 208.783 204.672 C 208.364 204.182 207.883 203.629 207.535 203.006 C 206.082 200.169 207.188 196.637 210.024 195.113 L 235.233 181.817 M 126.933 234.375 C 132.33 234.375 136.762 238.601 136.762 244.068 C 136.762 249.472 132.33 253.761 126.933 253.761 C 109.83 253.761 93.4155 250.301 78.4604 244.21 C 62.875 237.701 48.8205 228.213 37.1843 216.577 C 25.5553 204.948 16.1389 191.028 9.62919 175.45 L 9.4877 174.89 C 3.39648 160.076 0 143.804 0 126.835 C 0 109.732 3.53159 93.3242 9.62919 78.3622 C 16.1389 62.7831 25.5553 48.7936 37.1843 37.0931 C 48.8205 25.4573 62.875 15.9695 78.4604 9.46004 L 78.872 9.32579 C 93.8337 3.3688 110.036 0.0436249 126.933 0.0436249 C 144.037 0.0436249 160.445 3.36882 175.541 9.46004 C 191.057 15.9695 205.039 25.4573 216.675 37.0931 C 228.446 48.7936 237.792 62.7831 244.238 78.3622 L 244.373 78.7804 C 250.471 93.7346 253.86 109.938 253.86 126.835 C 253.86 132.239 249.498 136.599 244.096 136.599 C 238.692 136.599 234.332 132.239 234.332 126.835 C 234.332 112.363 231.495 98.72 226.511 86.3251 L 226.233 85.7717 C 220.759 72.6186 212.796 60.8409 202.897 50.8711 C 192.921 40.9012 181.08 33.0088 167.997 27.5347 C 155.46 22.3446 141.611 19.4366 126.933 19.4366 C 112.461 19.4366 98.8182 22.2731 86.3527 27.3995 L 85.8708 27.5347 C 72.7807 33.0088 60.9393 40.9012 51.0404 50.8711 C 41.0633 60.8409 33.1001 72.6186 27.6332 85.7717 C 22.5066 98.4428 19.5281 112.292 19.5281 126.835 C 19.5281 141.307 22.372 154.951 27.4914 167.346 L 27.6332 167.898 C 33.1001 181.059 41.0633 192.964 51.0404 202.8 C 60.9393 212.769 72.7807 220.803 85.8708 226.207 C 98.5419 231.397 112.39 234.375 126.933 234.375 M 126.933 200.998 C 130.253 200.998 132.819 203.558 132.819 206.749 C 132.819 210.004 130.253 212.634 126.933 212.634 C 115.439 212.634 104.285 210.344 94.11 206.125 C 83.7219 201.758 74.2343 195.389 66.2711 187.569 C 58.38 179.668 52.0046 170.181 47.7148 159.73 L 47.5725 159.453 C 43.4178 149.342 41.2052 138.33 41.2052 126.835 C 41.2052 115.341 43.5597 104.194 47.7148 94.0823 L 47.7148 94.0118 C 52.0046 83.4886 58.38 74.0722 66.2711 66.2435 C 74.1634 58.352 83.7219 51.9131 94.11 47.5449 L 94.4576 47.4811 C 104.498 43.3901 115.574 41.0355 126.933 41.0355 C 138.562 41.0355 149.574 43.4606 159.686 47.5449 L 159.756 47.5449 C 170.28 51.9131 179.697 58.352 187.588 66.2435 C 195.488 74.0722 201.855 83.56 206.153 94.0823 L 206.287 94.5005 C 210.443 104.47 212.662 115.412 212.662 126.835 C 212.662 130.09 210.024 132.72 206.839 132.72 C 203.656 132.72 200.955 130.09 200.955 126.835 C 200.955 116.865 199.02 107.377 195.488 98.72 L 195.488 98.5848 C 191.744 89.5083 186.071 81.3397 179.279 74.5541 C 172.492 67.6265 164.324 62.1592 155.325 58.4225 C 146.596 54.8916 137.038 52.8132 126.933 52.8132 C 116.957 52.8132 107.476 54.8916 98.8182 58.3521 L 98.6762 58.4225 C 89.6074 62.1592 81.3674 67.6265 74.5108 74.5541 C 67.725 81.3397 62.2574 89.5083 58.5138 98.5848 C 54.9118 107.173 52.9047 116.795 52.9047 126.835 C 52.9047 136.805 54.8476 146.434 58.38 154.951 L 58.5138 155.157 C 62.2574 164.296 67.725 172.33 74.5108 179.258 C 81.3674 186.044 89.536 191.511 98.6762 195.319 C 107.405 198.92 116.957 200.998 126.933 200.998 M 126.933 166.374 C 130.253 166.374 132.819 168.87 132.819 172.125 C 132.819 175.45 130.253 178.081 126.933 178.081 C 120.148 178.081 113.496 176.627 107.405 174.131 C 101.101 171.571 95.493 167.763 90.7847 163.047 L 90.5076 162.771 C 85.9336 158.063 82.197 152.525 79.6376 146.505 C 77.2124 140.407 75.8293 133.763 75.8293 126.835 C 75.8293 119.914 77.2124 113.334 79.6376 107.307 L 79.7728 107.031 C 82.4741 100.869 86.147 95.2596 90.7847 90.6856 C 100.066 81.4817 112.802 75.7314 126.933 75.7314 C 133.854 75.7314 140.505 77.1134 146.462 79.6805 L 146.596 79.6805 C 152.758 82.1693 158.368 85.9137 163.217 90.6856 L 163.494 90.8981 C 167.997 95.6778 171.663 101.287 174.23 107.307 C 176.789 113.334 178.172 119.914 178.172 126.835 C 178.172 130.09 175.541 132.72 172.216 132.72 C 168.961 132.72 166.331 130.09 166.331 126.835 C 166.331 121.503 165.429 116.377 163.352 111.739 C 161.552 107.031 158.644 102.804 155.183 99.2087 L 154.907 98.9962 C 151.171 95.2596 146.874 92.3526 142.03 90.4094 C 137.385 88.473 132.33 87.3672 126.933 87.3672 C 116.056 87.3672 106.157 91.7992 99.0944 98.9962 L 98.9524 98.9962 C 95.4929 102.393 92.5859 106.753 90.6428 111.533 L 90.5076 111.739 C 88.5721 116.377 87.4586 121.503 87.4586 126.835 C 87.4586 132.239 88.5721 137.294 90.5076 141.931 L 90.5076 142.002 C 92.444 146.639 95.2158 151.001 98.8182 154.602 L 99.0944 154.808 C 102.698 158.411 107.129 161.389 111.837 163.396 C 116.475 165.196 121.665 166.374 126.933 166.374 M 147.916 140.478 L 251.987 175.032 C 255.037 176.208 256.695 179.392 255.59 182.576 C 255.178 183.966 254.066 185.142 252.824 185.902 L 222.489 201.758 L 244.925 224.129 C 247.074 226.412 247.074 230.085 244.79 232.439 L 244.925 232.439 L 232.46 244.693 C 230.247 246.976 226.511 246.976 224.22 244.693 L 223.88 244.487 L 201.855 222.462 L 185.929 252.797 C 184.405 255.704 180.802 256.675 177.966 255.222 C 176.513 254.456 175.541 253.073 175.13 251.619 L 140.64 147.959 C 139.534 144.839 141.193 141.513 144.313 140.478 C 145.491 140.13 146.874 140.13 147.916 140.478"/></g></g></g><defs><clipPath id="clip0_1_74038" clipPathUnits="userSpaceOnUse"><rect fill="#ffffff" x="0" y="0" width="256" height="256"/></clipPath></defs></svg>
