<?xml version="1.0" encoding="UTF-8" standalone="yes"?><svg id="图层_1" xmlns="http://www.w3.org/2000/svg" xmlns:xlink="http://www.w3.org/1999/xlink" version="1.2" baseProfile="tiny" x="0" y="0" width="256" height="256" viewBox="0 0 256 256"><defs><linearGradient id="wps{47429017-d198-4b36-9a5d-051cf1abbeb3}_solid@Background1_0.00@Background1_0.00" x1="0" y1="0.5" x2="1" y2="0.5" spreadMethod="pad" gradientUnits="userSpaceOnUse"><stop offset="0" stop-color="#ffffff" stop-opacity="1"/><stop offset="1" stop-color="#ffffff" stop-opacity="1"/></linearGradient></defs><defs><clipPath id="clip-path" clipPathUnits="userSpaceOnUse"><rect class="cls-2" fill="none" x="0" y="0" width="256" height="256"/></clipPath><g id="mask0_14_18090"><path fill="url(#wps{47429017-d198-4b36-9a5d-051cf1abbeb3}_solid@Background1_0.00@Background1_0.00)" d="M 256 0 L 0 0 L 0 256 L 256 256 L 256 0 Z"/></g></defs><g class="cls-3" clip-path="url(#clip-path)"><g class="cls-4"><g><path fill="url(#wps{47429017-d198-4b36-9a5d-051cf1abbeb3}_solid@Background1_0.00@Background1_0.00)" d="M 127.88 51.83 C 107.445 51.83 90.88 68.3955 90.88 88.83 C 90.88 109.265 107.445 125.83 127.88 125.83 C 148.315 125.83 164.88 109.265 164.88 88.83 C 164.88 68.3955 148.315 51.83 127.88 51.83 Z"/><path fill="url(#wps{47429017-d198-4b36-9a5d-051cf1abbeb3}_solid@Background1_0.00@Background1_0.00)" d="M 127.88 143.37 C 97.735 143.376 73.2937 118.942 73.29 88.7967 C 73.2863 58.6517 97.7217 34.2118 127.867 34.21 C 158.012 34.2082 182.45 58.645 182.45 88.79 C 182.417 118.916 158.006 143.331 127.88 143.37 M 128 0 C 79.1569 -0.0220985 39.55 39.5669 39.55 88.41 C 39.55 139.02 100.09 225.94 120.97 251.92 C 125.33 257.35 130.53 257.2 134.77 251.92 C 155.47 226.18 216.38 139.17 216.38 88.41 C 216.374 39.5965 176.813 0.0220822 128 -9.81659e-15 L 128 0"/></g></g></g></svg>
